<svg width="147" height="44" viewBox="0 0 147 44" fill="none" xmlns="http://www.w3.org/2000/svg">
<path d="M69.7109 16.8554C69.7109 27.5809 65.7824 29.759 54.1526 29.759H47.5695V42.7502C47.5695 43.4406 47.4139 43.601 46.7721 43.601H40.0335C39.3965 43.601 39.2361 43.4406 39.2361 42.7502V4.54002C39.2361 3.95659 39.3965 3.84962 40.0335 3.79614C44.7058 3.37315 49.8011 3.21271 54.1331 3.21271C65.7629 3.21271 69.6914 6.23685 69.6914 16.8554H69.7109ZM47.55 10.4862V23.3315H53.2872C59.6077 23.3315 61.2462 22.4807 61.2462 17.0693C61.2462 11.76 59.6028 10.4862 53.2872 10.4862H47.55Z" fill="white"/>
<path d="M89.1149 14.1909C89.6983 14.3514 89.9609 14.5604 89.9609 15.2508V19.6266C89.9609 20.1565 89.6448 20.4191 89.0614 20.4191H84.0682C81.3115 20.4191 80.3536 20.8469 80.3536 23.1272V42.7695C80.3536 43.3578 80.0862 43.6204 79.5563 43.6204H73.2357C72.7058 43.6204 72.4384 43.3578 72.4384 42.7695V21.09C72.4384 14.4 77.2177 13.6075 82.0456 13.6075C83.5868 13.6075 87.2528 13.7631 89.11 14.1909" fill="white"/>
<path d="M118.894 28.4706C118.894 40.5769 116.4 43.6011 105.359 43.6011C94.3172 43.6011 91.823 40.5769 91.823 28.4706C91.823 16.3643 94.3706 13.3402 105.359 13.3402C116.347 13.3402 118.894 16.3157 118.894 28.4706ZM99.7334 28.4706C99.7334 35.1607 100.526 36.804 105.359 36.804C110.191 36.804 111.037 35.1607 111.037 28.4706C111.037 21.7806 110.235 20.1372 105.373 20.1372C100.511 20.1372 99.7334 21.7611 99.7334 28.4706Z" fill="white"/>
<path d="M145.295 13.8703C145.878 13.8703 146.199 14.1377 146.199 14.6677V18.2801C146.189 18.6477 146.057 19.0017 145.825 19.2865L132.766 36.7896H145.985C146.569 36.7896 146.89 37.057 146.89 37.5869V42.7358C146.89 43.3241 146.569 43.5866 145.985 43.5866H122.307C121.671 43.5866 121.335 43.3241 121.335 42.7358V39.2886C121.338 38.9191 121.469 38.562 121.705 38.2773L135.192 20.4923H122.876C122.239 20.4923 121.977 20.2297 121.977 19.6949V14.6677C121.977 14.1377 122.239 13.8703 122.876 13.8703H145.295Z" fill="white"/>
<path d="M16.7202 0.130331L27.4553 6.32933C27.6085 6.41304 27.7364 6.53645 27.8254 6.68658C27.9144 6.83672 27.9614 7.00805 27.9614 7.18261C27.9614 7.35716 27.9144 7.5285 27.8254 7.67863C27.7364 7.82877 27.6085 7.95217 27.4553 8.03588L16.7202 14.2349C16.5713 14.3208 16.4024 14.3658 16.2305 14.3652C16.0587 14.3646 15.8901 14.3185 15.7418 14.2315C15.5936 14.1446 15.471 14.0199 15.3867 13.8702C15.3023 13.7204 15.2592 13.551 15.2616 13.3792V0.986041C15.2592 0.814201 15.3023 0.644793 15.3867 0.495067C15.471 0.345341 15.5936 0.220646 15.7418 0.133684C15.8901 0.0467224 16.0587 0.000593913 16.2305 5.69741e-06C16.4024 -0.000582518 16.5713 0.0443858 16.7202 0.130331Z" fill="white"/>
<path d="M12.855 28.9909H1.32732C1.06942 28.9909 0.822105 28.8885 0.639746 28.7061C0.457387 28.5237 0.354925 28.2764 0.354925 28.0185V16.4957C0.347532 16.2976 0.400857 16.102 0.507751 15.935C0.614646 15.7681 0.769987 15.6378 0.952996 15.5616C1.136 15.4855 1.33795 15.4671 1.53172 15.5089C1.72549 15.5507 1.90182 15.6507 2.03714 15.7955L13.5503 27.3038C13.697 27.4388 13.7986 27.6155 13.8415 27.8102C13.8844 28.0049 13.8665 28.208 13.7901 28.3921C13.7137 28.5762 13.5825 28.7324 13.4144 28.8395C13.2463 28.9466 13.0493 28.9995 12.8501 28.9909" fill="#FF7F00"/>
<path d="M12.8599 43.6011H1.32737C1.06948 43.6011 0.82216 43.4987 0.639802 43.3163C0.457443 43.1339 0.35498 42.8866 0.35498 42.6287V31.101C0.35498 30.8431 0.457443 30.5958 0.639802 30.4134C0.82216 30.231 1.06948 30.1286 1.32737 30.1286H12.8405C13.0984 30.1286 13.3457 30.231 13.5281 30.4134C13.7105 30.5958 13.8129 30.8431 13.8129 31.101V42.6141C13.8129 42.872 13.7105 43.1193 13.5281 43.3017C13.3457 43.4841 13.0984 43.5865 12.8405 43.5865" fill="#FF7F00"/>
<path d="M7.10334 14.2787C5.69939 14.2796 4.32668 13.8642 3.15881 13.085C1.99094 12.3059 1.08034 11.1979 0.542184 9.90115C0.00403036 8.60444 -0.137495 7.17728 0.135458 5.80012C0.408411 4.42297 1.08361 3.15768 2.07567 2.16426C3.06773 1.17084 4.33207 0.493914 5.70885 0.219075C7.08563 -0.0557641 8.51303 0.0838302 9.81047 0.620207C11.1079 1.15658 12.2171 2.06566 12.9979 3.23246C13.7787 4.39926 14.196 5.77139 14.1969 7.17533C14.1969 8.10687 14.0134 9.0293 13.657 9.88994C13.3005 10.7506 12.778 11.5326 12.1193 12.1913C11.4606 12.85 10.6786 13.3725 9.81795 13.729C8.95732 14.0854 8.03488 14.2689 7.10334 14.2689" fill="#FF7F00"/>
<path d="M16.0348 28.9908C19.2446 28.7378 22.2589 27.3477 24.5352 25.0705C26.8116 22.7933 28.2005 19.7785 28.4522 16.5685C28.4651 16.4333 28.4495 16.2968 28.4065 16.168C28.3634 16.0391 28.2939 15.9207 28.2022 15.8204C28.1106 15.7201 27.999 15.6401 27.8746 15.5855C27.7501 15.531 27.6157 15.5031 27.4798 15.5037H15.9715C15.7137 15.5037 15.4663 15.6062 15.284 15.7885C15.1016 15.9709 14.9992 16.2182 14.9992 16.4761V27.9892C14.9985 28.1251 15.0264 28.2596 15.0809 28.384C15.1355 28.5084 15.2155 28.6201 15.3158 28.7117C15.4161 28.8033 15.5345 28.8729 15.6634 28.9159C15.7923 28.959 15.9287 28.9745 16.064 28.9616" fill="#FF7F00"/>
</svg>
